<?xml version="1.0" encoding="UTF-8" standalone="yes"?>
<svg xmlns:svg="http://www.w3.org/2000/svg" xmlns="http://www.w3.org/2000/svg" version="1.0" width="480" height="230">
  <!--外边框-->
  <rect x="10" y="10" width="460" height="100" fill="none" stroke="black" stroke-width="1"/>

  <!--刻度表-->
  <g stroke="black">
    <!--刻度轴-->
    <line x1="10" x2="470" y1="40" y2="40"/>
    <line x1="200" x2="200" y1="10" y2="110"/>
    <line x1="290" x2="290" y1="10" y2="110"/>
    <line x1="310" x2="310" y1="10" y2="110"/>
    <line x1="330" x2="330" y1="10" y2="110"/>
    <line x1="350" x2="350" y1="10" y2="110"/>
    <line x1="370" x2="370" y1="10" y2="110"/>
    <line x1="390" x2="390" y1="10" y2="110"/>
    <line x1="410" x2="410" y1="10" y2="110"/>
    <line x1="430" x2="430" y1="10" y2="110"/>
    <line x1="450" x2="450" y1="10" y2="110"/>

    <g font-family="Arial" stroke="none">
      <text x="15" y="30">31</text>
      <text x="100" y="25">...</text>
      <text x="175" y="30">12</text>

      <text x="210" y="30">11</text>
      <text x="240" y="25">...</text>
      <text x="270" y="30">9</text>

      <text x="295" y="30">8</text>
      <text x="315" y="30">7</text>
      <text x="335" y="30">6</text>
      <text x="355" y="30">5</text>
      <text x="375" y="30">4</text>
      <text x="395" y="30">3</text>
      <text x="415" y="30">2</text>
      <text x="435" y="30">1</text>
      <text x="455" y="30">0</text>
    </g>
  </g>

  <!--标签-->
  <g font-family="Arial">
    <text x="25" y="80">Bits 31 ~ 12 of address</text>
    <text x="230" y="80">AVL</text>
    <text x="293" y="80">G</text>
    <text x="318" y="60" writing-mode="vertical-lr">PAT</text>
    <text x="335" y="80">D</text>
    <text x="355" y="80">A</text>
    <text x="378" y="60" writing-mode="vertical-lr">PCD</text>
    <text x="398" y="60" writing-mode="vertical-lr">PWT</text>
    <text x="418" y="60" writing-mode="vertical-lr">U / S</text>
    <text x="438" y="60" writing-mode="vertical-lr">R / W</text>
    <text x="455" y="80">P</text>
  </g>

  <!--备注-->
  <g>
    <text x="10" y="140" font-weight="bold">AVL:</text><text x="60" y="140">Available</text>
    <text x="240" y="140" font-weight="bold">G:</text><text x="290" y="140">Global</text>
    <text x="10" y="160" font-weight="bold">PAT:</text><text x="60" y="160">Page Attribute Table</text>
    <text x="240" y="160" font-weight="bold">D:</text><text x="290" y="160">Dirty</text>
    <text x="10" y="180" font-weight="bold">A:</text><text x="60" y="180">Accessed</text>
    <text x="240" y="180" font-weight="bold">PCD:</text><text x="290" y="180">Cache Disable</text>
    <text x="10" y="200" font-weight="bold">PWT:</text><text x="60" y="200">Write-Trough</text>
    <text x="240" y="200" font-weight="bold">U / S:</text><text x="290" y="200">User / Superisor</text>
    <text x="10" y="220" font-weight="bold">R / W:</text><text x="60" y="220">Read-only or writable</text>
    <text x="240" y="220" font-weight="bold">P:</text><text x="290" y="220">Present</text>
  </g>
</svg>
