<?xml version="1.0" encoding="UTF-8" standalone="yes"?>
<svg xmlns:svg="http://www.w3.org/2000/svg" xmlns="http://www.w3.org/2000/svg" version="1.0" width="480" height="310">
  <!--矩形-->
  <rect x="10" y="10" width="460" height="100" fill="none" stroke="black" stroke-width="2"/>
  <!--刻度线-->
  <line x1="10" y1="30" x2="470" y2="30" stroke="black" stroke-width="1"/>
  <line x1="190" y1="10" x2="190" y2="110" stroke="black" stroke-width="1"/>
  <line x1="310" y1="10" x2="310" y2="110" stroke="black" stroke-width="1"/>
  <line x1="330" y1="10" x2="330" y2="110" stroke="black" stroke-width="1"/>
  <line x1="350" y1="10" x2="350" y2="110" stroke="black" stroke-width="1"/>
  <line x1="370" y1="10" x2="370" y2="110" stroke="black" stroke-width="1"/>
  <line x1="390" y1="10" x2="390" y2="110" stroke="black" stroke-width="1"/>
  <line x1="410" y1="10" x2="410" y2="110" stroke="black" stroke-width="1"/>
  <line x1="430" y1="10" x2="430" y2="110" stroke="black" stroke-width="1"/>
  <line x1="450" y1="10" x2="450" y2="110" stroke="black" stroke-width="1"/>

  <g font-family="Arial" fill="black">
    <g font-size="15px">
      <!--刻度表上的文本-->
      <text x="15" y="25">31</text>
      <text x="95" y="20">...</text>
      <text x="165" y="25">12</text>

      <text x="195" y="25">11</text>
      <text x="245" y="20">...</text>
      <text x="290" y="25">8</text>

      <text x="315" y="25">7</text>
      <text x="335" y="25">6</text>
      <text x="355" y="25">5</text>
      <text x="375" y="25">4</text>
      <text x="395" y="25">3</text>
      <text x="415" y="25">2</text>
      <text x="435" y="25">1</text>
      <text x="455" y="25">0</text>

      <!--标记-->
      <text x="25" y="70">Bits 31 ~ 12 of address</text>
      <text x="240" y="70">AVL</text>
      <text x="320" y="50" writing-mode="vertical-rl">PS(0)</text>
      <text x="340" y="50" writing-mode="vertical-rl">AVL</text>
      <text x="355" y="70">A</text>
      <text x="380" y="50" writing-mode="vertical-rl">PCD</text>
      <text x="400" y="50" writing-mode="vertical-rl">PWT</text>
      <text x="420" y="50" writing-mode="vertical-rl">U / S</text>
      <text x="440" y="50" writing-mode="vertical-rl">R / W</text>
      <text x="455" y="70">P</text>
    </g>
  </g>

  <!--备注-->
  <rect x="10" y="120" width="460" height="180" stroke="black" stroke-width="1" fill="none"/>
  <g font-family="Arial" fill="black">
    <text x="20" y="140" font-weight="bold">P:</text><text x="70" y="140">Present</text>
    <text x="20" y="160" font-weight="bold">R / W:</text><text x="70" y="160">Read-only or writable</text>
    <text x="20" y="180" font-weight="bold">U / S:</text><text x="70" y="180">User / Supervisor</text>
    <text x="20" y="200" font-weight="bold">PWT:</text><text x="70" y="200">Write-Through</text>
    <text x="20" y="220" font-weight="bold">PCD:</text><text x="70" y="220">Cache Disable</text>
    <text x="20" y="240" font-weight="bold">A:</text><text x="70" y="240">Accessed</text>
    <text x="20" y="260" font-weight="bold">AVL:</text><text x="70" y="260">Available</text>
    <text x="20" y="280" font-weight="bold">PS:</text><text x="70" y="280">Page Size</text>
  </g>
</svg>
