<?xml version="1.0" encoding="UTF-8" standalone="no"?>
<!-- Created with Inkscape (http://www.inkscape.org/) -->

<svg
   version="1.0"
   width="754"
   height="376"
   id="svg2"
   sodipodi:version="0.32"
   inkscape:version="1.2 (dc2aeda, 2022-05-15)"
   sodipodi:docname="Vacuum_triode_zh.svg"
   inkscape:output_extension="org.inkscape.output.svg.inkscape"
   sodipodi:modified="true"
   xmlns:inkscape="http://www.inkscape.org/namespaces/inkscape"
   xmlns:sodipodi="http://sodipodi.sourceforge.net/DTD/sodipodi-0.dtd"
   xmlns="http://www.w3.org/2000/svg"
   xmlns:svg="http://www.w3.org/2000/svg"
   xmlns:rdf="http://www.w3.org/1999/02/22-rdf-syntax-ns#"
   xmlns:cc="http://creativecommons.org/ns#"
   xmlns:dc="http://purl.org/dc/elements/1.1/">
  <metadata
     id="metadata67">
    <rdf:RDF>
      <cc:Work
         rdf:about="">
        <dc:format>image/svg+xml</dc:format>
        <dc:type
           rdf:resource="http://purl.org/dc/dcmitype/StillImage" />
      </cc:Work>
    </rdf:RDF>
  </metadata>
  <sodipodi:namedview
     inkscape:window-height="748"
     inkscape:window-width="1440"
     inkscape:pageshadow="2"
     inkscape:pageopacity="0.0"
     guidetolerance="10.0"
     gridtolerance="10.0"
     objecttolerance="10.0"
     borderopacity="1.0"
     bordercolor="#666666"
     pagecolor="#ffffff"
     id="base"
     showgrid="true"
     inkscape:grid-points="true"
     inkscape:zoom="0.84467052"
     inkscape:cx="379.43789"
     inkscape:cy="137.33165"
     inkscape:window-x="0"
     inkscape:window-y="25"
     inkscape:current-layer="svg2"
     inkscape:showpageshadow="2"
     inkscape:pagecheckerboard="0"
     inkscape:deskcolor="#d1d1d1"
     inkscape:window-maximized="0">
    <inkscape:grid
       id="GridFromPre046Settings"
       type="xygrid"
       originx="0"
       originy="0"
       spacingx="1"
       spacingy="1"
       color="#3f3fff"
       empcolor="#3f3fff"
       opacity="0.15"
       empopacity="0.38"
       empspacing="5" />
  </sodipodi:namedview>
  <defs
     id="defs4" />
  <text
     x="157.66061"
     y="41.722656"
     id="text_Glasroehre"
     xml:space="preserve"
     style="font-size:21.3333px;line-height:0%"><tspan
       x="157.66061"
       y="41.722656"
       id="tspan4650"
       style="font-size:21.3333px">玻璃管（真空）</tspan></text>
  <text
     x="387.35352"
     y="43.222656"
     id="text_Elektronen"
     xml:space="preserve"
     style="font-size:21.3333px;line-height:0%"><tspan
       x="387.35352"
       y="43.222656"
       id="tspan4167"
       style="font-size:21.3333px">电子</tspan></text>
  <text
     x="208.51466"
     y="86.000031"
     id="text_Glühkathode"
     xml:space="preserve"
     style="font-size:21.3333px;line-height:0%"><tspan
       x="208.51466"
       y="86.000031"
       id="tspan4179"
       style="font-size:21.3333px">热离子阴极</tspan></text>
  <text
     x="444.84375"
     y="85.726593"
     id="text_Anode"
     xml:space="preserve"
     style="font-size:21.3333px;line-height:0%"><tspan
       x="444.84375"
       y="85.726593"
       id="tspan4173"
       style="font-size:21.3333px">阳极</tspan></text>
  <text
     x="72.34375"
     y="118.01981"
     style="font-style:normal;font-variant:normal;font-weight:normal;font-stretch:normal;font-size:21.3333px;line-height:0%;font-family:'Times New Roman';text-align:center;writing-mode:lr-tb;text-anchor:middle"
     id="text_Heizspannung"
     xml:space="preserve"><tspan
       x="74.84375"
       y="136.01981"
       style="font-weight:normal;font-size:21.3333px"
       id="tspan4687"
       dy="0 0 0 0 0 0 7.001956">加热电压 U<tspan
   dx="2.0864003"
   dy="1.9801891"
   style="font-style:normal;font-variant:normal;font-weight:normal;font-stretch:normal;font-size:65%;line-height:90%;font-family:'Times New Roman';text-align:center;writing-mode:lr-tb;baseline-shift:sub;text-anchor:middle"
   id="tspan4691">H</tspan></tspan></text>
  <text
     x="675"
     y="181.00003"
     style="font-style:normal;font-variant:normal;font-weight:normal;font-stretch:normal;font-size:21.3333px;line-height:0%;font-family:'Times New Roman';text-align:center;writing-mode:lr-tb;text-anchor:middle"
     id="text_Anodenstromst."
     xml:space="preserve"><tspan
       x="675"
       y="181.00003"
       id="tspan4191"
       style="font-size:21.3333px">阳极电流 I<tspan
   style="font-size:65%;baseline-shift:sub"
   id="tspan591">A</tspan></tspan></text>
  <text
     x="301.46954"
     y="249.40091"
     style="font-style:normal;font-variant:normal;font-weight:normal;font-stretch:normal;font-size:21.3333px;line-height:0%;font-family:'Times New Roman';text-align:center;writing-mode:lr-tb;text-anchor:middle"
     id="text_Anodensp."
     xml:space="preserve"><tspan
       x="301.46954"
       y="249.40091"
       dy="0 0 0 0 0 0"
       id="tspan4205"
       style="font-size:21.3333px">阴极电压 U<tspan
   dy="3.5355334"
   style="font-style:normal;font-variant:normal;font-weight:normal;font-stretch:normal;font-size:65%;line-height:90%;font-family:'Times New Roman';text-align:center;writing-mode:lr-tb;baseline-shift:sub;text-anchor:middle"
   id="tspan4207">A</tspan></tspan></text>
  <text
     x="338.56641"
     y="290.00003"
     id="text_+-"
     xml:space="preserve"
     style="line-height:0%"><tspan
       x="338.56641"
       y="290.00003"
       style="font-size:20px;font-family:'Times New Roman'"
       id="tspan2225"><tspan
         x="338.56641"
         y="290.00003"
         style="font-size:20px;font-family:'Times New Roman'"
         id="tspan2227"><tspan
           style="font-size:28px"
           id="tspan2233"><tspan
             style="font-size:24px"
             id="tspan2235">−  + </tspan></tspan></tspan></tspan></text>
  <rect
     width="377.48804"
     height="151.48802"
     rx="75.987877"
     ry="75.436028"
     x="168.97026"
     y="55.398834"
     style="fill:none;fill-opacity:1;fill-rule:nonzero;stroke:#000000;stroke-width:4;stroke-linecap:round;stroke-linejoin:round;stroke-miterlimit:4;stroke-dasharray:none;stroke-opacity:1"
     id="rect_Gehaeuse" />
  <path
     d="M 131,113 L 131,93 L 245,93 L 245,117 C 240,122 249,122 249,119 C 249,116 240,118 240,122 C 240,127 249,129 249,125 C 249,121 240,124 240,129 C 240,134 249,136 249,132 C 249,128 240,131 240,136 C 240,141 249,143 249,139 C 249,135 240,137 240,143 C 240,149 249,147.5 249,146 C 249,144.5 245,145 245,146 L 245,169 L 131,169 L 131,150"
     style="opacity:1;fill:none;fill-opacity:1;fill-rule:evenodd;stroke:#ff0101;stroke-width:1.20000005;stroke-linecap:butt;stroke-linejoin:miter;stroke-miterlimit:4;stroke-dasharray:none;stroke-opacity:1"
     id="path_Heizspirale" />
  <path
     d="M 136.39322,118 C 136.39322,120.9786 133.97859,123.39323 131,123.39323 C 128.0214,123.39323 125.60677,120.9786 125.60677,118 C 125.60677,115.0214 128.0214,112.60677 131,112.60677 C 133.97859,112.60677 136.39322,115.0214 136.39322,118 z "
     style="fill:none;fill-opacity:1;fill-rule:nonzero;stroke:#ff0000;stroke-width:1.21354818;stroke-linecap:butt;stroke-linejoin:round;stroke-miterlimit:4;stroke-dasharray:none;stroke-opacity:1"
     id="path_Kreis1_Heizspirale" />
  <path
     d="M 136.39322,144 C 136.39322,146.9786 133.97859,149.39323 131,149.39323 C 128.0214,149.39323 125.60677,146.9786 125.60677,144 C 125.60677,141.0214 128.0214,138.60677 131,138.60677 C 133.97859,138.60677 136.39322,141.0214 136.39322,144 z "
     style="fill:none;fill-opacity:1;fill-rule:nonzero;stroke:#ff0000;stroke-width:1.21354818;stroke-linecap:butt;stroke-linejoin:round;stroke-miterlimit:4;stroke-dasharray:none;stroke-opacity:1"
     id="path_Kreis2_Heizspirale" />
  <rect
     width="8.0000057"
     height="75.999969"
     x="259"
     y="93.000031"
     style="fill:#0000ff;fill-opacity:1;fill-rule:nonzero;stroke:none;stroke-width:1.56098151;stroke-linecap:butt;stroke-linejoin:round;stroke-miterlimit:4;stroke-dasharray:none;stroke-opacity:1"
     id="rect_Kathode" />
  <path
     d="M 263,169 L 263,188 L 131,188 L 131,263 L 339,263"
     style="fill:none;fill-rule:evenodd;stroke:#0000ff;stroke-width:1px;stroke-linecap:butt;stroke-linejoin:miter;marker-start:none;marker-mid:none;stroke-opacity:1"
     id="path_Kabel1" />
  <path
     d="M 344.99999,257.60673 C 347.97859,257.60673 350.39322,260.02137 350.39322,262.99995 C 350.39322,265.97855 347.97859,268.39319 344.99999,268.39319 C 342.02139,268.39319 339.60676,265.97855 339.60676,262.99995 C 339.60676,260.02137 342.02139,257.60673 344.99999,257.60673 z "
     style="fill:none;fill-opacity:1;fill-rule:nonzero;stroke:#0000ff;stroke-width:1.21354818;stroke-linecap:butt;stroke-linejoin:round;stroke-miterlimit:4;stroke-dasharray:none;stroke-opacity:1"
     id="path_Kreis1_Kabel" />
  <path
     d="M 371,257.60673 C 373.9786,257.60673 376.39323,260.02137 376.39323,262.99995 C 376.39323,265.97855 373.9786,268.39319 371,268.39319 C 368.0214,268.39319 365.60677,265.97855 365.60677,262.99995 C 365.60677,260.02137 368.0214,257.60673 371,257.60673 z "
     style="fill:none;fill-opacity:1;fill-rule:nonzero;stroke:#0000ff;stroke-width:1.21354818;stroke-linecap:butt;stroke-linejoin:round;stroke-miterlimit:4;stroke-dasharray:none;stroke-opacity:1"
     id="path_Kreis2_Kabel" />
  <path
     d="M 377,263 L 585,263 L 585,131 L 475,131"
     style="fill:none;fill-rule:evenodd;stroke:#0000ff;stroke-width:1px;stroke-linecap:butt;stroke-linejoin:miter;stroke-opacity:1"
     id="path_Kabel2" />
  <path
     d="M 301,263 L 301,329 L 414,329 L 414,263"
     style="fill:none;fill-rule:evenodd;stroke:#0000ff;stroke-width:1px;stroke-linecap:butt;stroke-linejoin:miter;stroke-opacity:1"
     id="path_Anodenspannung" />
  <path
     d="M 301,259 C 303.20914,259 305,260.79086 305,263 C 305,265.20914 303.20914,267 301,267 C 298.79086,267 296.99999,265.20914 296.99999,263 C 296.99999,260.79086 298.79086,259 301,259 z "
     style="fill:#0000ff;fill-opacity:1;fill-rule:nonzero;stroke:none;stroke-width:1.29999995;stroke-linecap:butt;stroke-linejoin:round;stroke-miterlimit:4;stroke-dasharray:none;stroke-opacity:1"
     id="path_Verbindung1" />
  <path
     d="M 414.00001,259 C 416.20915,259 418.00001,260.79086 418.00001,263 C 418.00001,265.20914 416.20915,267 414.00001,267 C 411.79087,267 410,265.20914 410,263 C 410,260.79086 411.79087,259 414.00001,259 z "
     style="fill:#0000ff;fill-opacity:1;fill-rule:nonzero;stroke:none;stroke-width:1.29999995;stroke-linecap:butt;stroke-linejoin:round;stroke-miterlimit:4;stroke-dasharray:none;stroke-opacity:1"
     id="path_Verbindung2" />
  <g
     transform="translate(22.714285,-427.21933)"
     id="Gruppe_Voltometer">
    <path
       d="M 137.9866,118.29962 C 137.9866,121.49041 135.39995,124.07706 132.20917,124.07706 C 129.01838,124.07706 126.43173,121.49041 126.43173,118.29962 C 126.43173,115.10883 129.01838,112.52218 132.20917,112.52218 C 135.39995,112.52218 137.9866,115.10883 137.9866,118.29962 z "
       transform="matrix(0,-4.8289843,4.8289844,0,-236.48131,1395.5029)"
       style="fill:#ffffff;fill-opacity:1;fill-rule:nonzero;stroke:#0000ff;stroke-width:0.24885854;stroke-linecap:butt;stroke-linejoin:round;stroke-miterlimit:4;stroke-dasharray:none;stroke-opacity:1"
       id="path_Kreis1" />
    <path
       d="M 320.28571,772.21933 L 349.28571,742.21933"
       style="fill:none;fill-rule:evenodd;stroke:#0000ff;stroke-width:1px;stroke-linecap:butt;stroke-linejoin:miter;marker-end:none;stroke-opacity:1"
       id="path_Pfeil1" />
    <path
       d="M 338.28571,746.77393 L 350.28571,741.2197 L 345.04125,753.21933 C 345.04125,753.21933 344.31373,750.55067 342.62484,748.93932 C 340.93595,747.32796 338.28571,746.77393 338.28571,746.77393 z "
       style="opacity:1;fill:#0000ff"
       id="path_Pfeilspitze1"
       sodipodi:nodetypes="cccsc" />
  </g>
  <g
     transform="translate(22.714285,-427.21933)"
     id="Gruppe_Ampermeter">
    <path
       d="M 137.9866,118.29962 C 137.9866,121.49041 135.39995,124.07706 132.20917,124.07706 C 129.01838,124.07706 126.43173,121.49041 126.43173,118.29962 C 126.43173,115.10883 129.01838,112.52218 132.20917,112.52218 C 135.39995,112.52218 137.9866,115.10883 137.9866,118.29962 z "
       transform="matrix(0,-4.8289843,4.8289844,0,-9.4813117,1263.1553)"
       style="fill:#ffffff;fill-opacity:1;fill-rule:nonzero;stroke:#0000ff;stroke-width:0.24885854;stroke-linecap:butt;stroke-linejoin:round;stroke-miterlimit:4;stroke-dasharray:none;stroke-opacity:1"
       id="path9242" />
    <path
       d="M 547.28571,639.87175 L 576.28571,609.87175"
       style="fill:none;fill-rule:evenodd;stroke:#0000ff;stroke-width:1px;stroke-linecap:butt;stroke-linejoin:miter;marker-end:none;stroke-opacity:1"
       id="path_Pfeil2" />
    <path
       d="M 565.28571,614.42635 L 577.28571,608.87212 L 572.04125,620.87175 C 572.04125,620.87175 571.31373,618.20309 569.62484,616.59174 C 567.93595,614.98038 565.28571,614.42635 565.28571,614.42635 z "
       style="fill:#0000ff"
       id="path_Pfeilspitze"
       sodipodi:nodetypes="cccsc" />
  </g>
  <rect
     width="8.0000057"
     height="75.999969"
     x="467"
     y="93.000031"
     style="fill:#0000ff;fill-opacity:1;fill-rule:nonzero;stroke:none;stroke-width:1.56098151;stroke-linecap:butt;stroke-linejoin:round;stroke-miterlimit:4;stroke-dasharray:none;stroke-opacity:1"
     id="rect_Anode" />
  <path
     d="M 425.5015,47.548901 L 328.09755,104.64777"
     style="fill:none;fill-rule:evenodd;stroke:#000000;stroke-width:1px;stroke-linecap:butt;stroke-linejoin:miter;stroke-opacity:1;display:inline"
     id="path_Bezeichnung_Elektron1" />
  <path
     d="M 433.00817,49.00421 L 366.85433,140.5"
     style="fill:none;fill-rule:evenodd;stroke:#000000;stroke-width:1px;stroke-linecap:butt;stroke-linejoin:miter;stroke-opacity:1;display:inline"
     id="path_Bezeichnung_Elektron2" />
  <path
     d="M 440,48.82062 L 418.16382,121"
     style="fill:none;fill-rule:evenodd;stroke:#000000;stroke-width:1px;stroke-linecap:butt;stroke-linejoin:miter;stroke-opacity:1;display:inline"
     id="path_Bezeichnung_Elektron3" />
  <g
     id="Gruppe_Elektron1">
    <g
       id="g4188">
      <path
         d="M 326.5362,112.5 C 326.53877,115.0155 325.19824,117.34103 323.02018,118.59953 C 320.84212,119.85802 318.15789,119.85802 315.97983,118.59953 C 313.80176,117.34103 312.46124,115.0155 312.46381,112.5 C 312.46124,109.9845 313.80176,107.65898 315.97983,106.40048 C 318.15789,105.14199 320.84212,105.14199 323.02018,106.40048 C 325.19824,107.65898 326.53877,109.9845 326.5362,112.5 z "
         style="fill:#00ff00;fill-opacity:1;fill-rule:nonzero;stroke:#000000;stroke-width:0.92761379;stroke-linecap:round;stroke-linejoin:round;stroke-miterlimit:4;stroke-dasharray:none;stroke-opacity:1"
         id="path_Kreis_Elektron1" />
      <path
         sodipodi:nodetypes="cc"
         d="M 326.1,112 L 344.1,112"
         style="fill:none;fill-rule:evenodd;stroke:#000000;stroke-width:1;stroke-linecap:butt;stroke-linejoin:miter;marker-start:none;marker-mid:none;marker-end:none;stroke-miterlimit:4;stroke-dasharray:none;stroke-opacity:1"
         id="path_Pfeil_Elektron1" />
      <path
         d="M 332.95,107.41552 L 345.36272,111.97337 L 333.16932,116.75 C 333.16932,116.75 334.5419,114.34854 334.48706,112.01491 C 334.43226,109.68129 332.95,107.41552 332.95,107.41552 z "
         style="opacity:1;fill:#000000;fill-opacity:1"
         id="path2219"
         sodipodi:nodetypes="cccsc" />
    </g>
  </g>
  <g
     id="Gruppe_Elektron2"
     transform="translate(38.000001,37.99279)">
    <path
       d="M 326.5362,112.5 C 326.53877,115.0155 325.19824,117.34103 323.02018,118.59953 C 320.84212,119.85802 318.15789,119.85802 315.97983,118.59953 C 313.80176,117.34103 312.46124,115.0155 312.46381,112.5 C 312.46124,109.9845 313.80176,107.65898 315.97983,106.40048 C 318.15789,105.14199 320.84212,105.14199 323.02018,106.40048 C 325.19824,107.65898 326.53877,109.9845 326.5362,112.5 z "
       style="fill:#00ff00;fill-opacity:1;fill-rule:nonzero;stroke:#000000;stroke-width:0.92761379;stroke-linecap:round;stroke-linejoin:round;stroke-miterlimit:4;stroke-dasharray:none;stroke-opacity:1"
       id="path4203" />
    <path
       sodipodi:nodetypes="cc"
       d="M 326.1,112 L 344.1,112"
       style="fill:none;fill-rule:evenodd;stroke:#000000;stroke-width:1;stroke-linecap:butt;stroke-linejoin:miter;marker-start:none;marker-mid:none;marker-end:none;stroke-miterlimit:4;stroke-dasharray:none;stroke-opacity:1"
       id="path4205" />
    <path
       d="M 332.95,107.41552 L 345.36272,111.97337 L 333.16932,116.75 C 333.16932,116.75 334.5419,114.34854 334.48706,112.01491 C 334.43226,109.68129 332.95,107.41552 332.95,107.41552 z "
       style="opacity:1;fill:#000000;fill-opacity:1"
       id="path4207"
       sodipodi:nodetypes="cccsc" />
  </g>
  <g
     id="Gruppe_Elektron3"
     transform="translate(95.03728,18.79952)">
    <path
       d="M 326.5362,112.5 C 326.53877,115.0155 325.19824,117.34103 323.02018,118.59953 C 320.84212,119.85802 318.15789,119.85802 315.97983,118.59953 C 313.80176,117.34103 312.46124,115.0155 312.46381,112.5 C 312.46124,109.9845 313.80176,107.65898 315.97983,106.40048 C 318.15789,105.14199 320.84212,105.14199 323.02018,106.40048 C 325.19824,107.65898 326.53877,109.9845 326.5362,112.5 z "
       style="fill:#00ff00;fill-opacity:1;fill-rule:nonzero;stroke:#000000;stroke-width:0.92761379;stroke-linecap:round;stroke-linejoin:round;stroke-miterlimit:4;stroke-dasharray:none;stroke-opacity:1"
       id="path4211" />
    <path
       sodipodi:nodetypes="cc"
       d="M 326.1,112 L 344.1,112"
       style="fill:none;fill-rule:evenodd;stroke:#000000;stroke-width:1;stroke-linecap:butt;stroke-linejoin:miter;marker-start:none;marker-mid:none;marker-end:none;stroke-miterlimit:4;stroke-dasharray:none;stroke-opacity:1"
       id="path4213" />
    <path
       d="M 332.95,107.41552 L 345.36272,111.97337 L 333.16932,116.75 C 333.16932,116.75 334.5419,114.34854 334.48706,112.01491 C 334.43226,109.68129 332.95,107.41552 332.95,107.41552 z "
       style="opacity:1;fill:#000000;fill-opacity:1"
       id="path4215"
       sodipodi:nodetypes="cccsc" />
  </g>
  <path
     style="fill:none;stroke:#ffe000;stroke-width:5.2;stroke-linecap:butt;stroke-linejoin:miter;stroke-opacity:1;stroke-dasharray:10.39999962, 5.19999981;stroke-dashoffset:0"
     d="M 368.6427,92.953908 V 169.04612"
     id="path1113" />
  <text
     x="347.51251"
     y="87.510887"
     id="text_Glühkathode-7"
     xml:space="preserve"
     style="font-size:21.3333px;line-height:0%"><tspan
       x="347.51251"
       y="87.510887"
       id="tspan4179-0"
       style="font-size:21.3333px">栅极</tspan></text>
  <path
     style="fill:none;stroke:#ffe000;stroke-width:1px;stroke-linecap:butt;stroke-linejoin:miter;stroke-opacity:1"
     d="m 368.757,165.18759 v 60.73073 l 40.32521,-0.48585"
     id="path2759"
     sodipodi:nodetypes="ccc" />
  <path
     style="fill:none;stroke:#ffe000;stroke-width:1px;stroke-linecap:butt;stroke-linejoin:miter;stroke-opacity:1"
     d="m 449.89326,225.43247 h 20.89137 v -56.84396"
     id="path3084" />
  <path
     style="fill:none;fill-opacity:1;fill-rule:nonzero;stroke:#ffe000;stroke-width:1.21355;stroke-linecap:butt;stroke-linejoin:round;stroke-miterlimit:4;stroke-dasharray:none;stroke-opacity:1"
     d="m 414.0631,220.46847 c 2.9786,0 5.39323,2.41464 5.39323,5.39322 0,2.9786 -2.41463,5.39324 -5.39323,5.39324 -2.9786,0 -5.39323,-2.41464 -5.39323,-5.39324 0,-2.97858 2.41463,-5.39322 5.39323,-5.39322 z"
     id="path3544" />
  <path
     style="fill:none;fill-opacity:1;fill-rule:nonzero;stroke:#ffe000;stroke-width:1.21355;stroke-linecap:butt;stroke-linejoin:round;stroke-miterlimit:4;stroke-dasharray:none;stroke-opacity:1"
     d="m 445.52064,220.46847 c 2.9786,0 5.39323,2.41464 5.39323,5.39322 0,2.9786 -2.41463,5.39324 -5.39323,5.39324 -2.9786,0 -5.39323,-2.41464 -5.39323,-5.39324 0,-2.97858 2.41463,-5.39322 5.39323,-5.39322 z"
     id="path_Kreis2_Kabel-3" />
  <text
     x="410.93393"
     y="248.32489"
     id="text_+--1"
     xml:space="preserve"
     style="line-height:0%"><tspan
       x="410.93393"
       y="248.32489"
       style="font-size:20px;font-family:'Times New Roman'"
       id="tspan2225-9"><tspan
         x="410.93393"
         y="248.32489"
         style="font-size:20px;font-family:'Times New Roman'"
         id="tspan2227-2"><tspan
           style="font-size:28px"
           id="tspan2233-4"><tspan
             style="font-size:24px"
             id="tspan2235-5">−  + </tspan></tspan></tspan></tspan></text>
  <text
     x="507.95517"
     y="247.07257"
     style="font-style:normal;font-variant:normal;font-weight:normal;font-stretch:normal;font-size:21.3333px;line-height:0%;font-family:'Times New Roman';text-align:center;writing-mode:lr-tb;text-anchor:middle"
     id="text_Anodensp.-5"
     xml:space="preserve"><tspan
       x="507.95517"
       y="247.07257"
       dy="0 0 0 0"
       id="tspan4205-8"
       style="font-size:21.3333px">栅极电压 U<tspan
   style="font-size:65%;baseline-shift:sub"
   id="tspan3620">G</tspan></tspan></text>
</svg>
